<svg xmlns="http://www.w3.org/2000/svg" viewBox="0 0 800 1000" role="img" aria-label="法式碎花连衣裙">
  <defs>
    <linearGradient id="g" x1="0" y1="0" x2="1" y2="1"><stop stop-color="#eafff6"/><stop offset="1" stop-color="#ffe8f0"/></linearGradient>
    <filter id="s" x="-20%" y="-20%" width="140%" height="140%"><feDropShadow dx="0" dy="18" stdDeviation="18" flood-opacity=".18"/></filter>
  </defs>
  <rect width="800" height="1000" fill="url(#g)"/>
  <circle cx="650" cy="150" r="180" fill="#fff" opacity=".18"/>
  <circle cx="105" cy="830" r="230" fill="#fff" opacity=".16"/>
  <g filter="url(#s)">
    <circle cx="398" cy="190" r="56" fill="#e2b49f"/><path d="M338 170c30-58 118-54 138 8-38-14-82-10-138-8z" fill="#2d1b22"/><path d="M292 300c58-70 158-70 216 0l88 380H204z" fill="#fff"/><g fill="#f06a8a"><circle cx="330" cy="380" r="15"/><circle cx="454" cy="430" r="13"/><circle cx="386" cy="520" r="16"/><circle cx="500" cy="585" r="14"/><circle cx="292" cy="612" r="12"/></g><g fill="#42b446"><ellipse cx="354" cy="403" rx="9" ry="18" transform="rotate(35 354 403)"/><ellipse cx="476" cy="455" rx="8" ry="16" transform="rotate(-35 476 455)"/><ellipse cx="410" cy="548" rx="9" ry="18" transform="rotate(28 410 548)"/></g>
  </g>
  <rect x="60" y="760" width="680" height="150" rx="28" fill="#111" opacity=".64"/>
  <text x="90" y="820" font-family="Inter, Arial, sans-serif" font-size="42" font-weight="800" fill="#fff">法式碎花连衣裙</text>
  <text x="90" y="868" font-family="Inter, Arial, sans-serif" font-size="24" fill="#fff7f2">floral midi dress</text>
</svg>
