<svg xmlns="http://www.w3.org/2000/svg" viewBox="0 0 800 1000" role="img" aria-label="叠戴金色项链">
  <defs>
    <linearGradient id="g" x1="0" y1="0" x2="1" y2="1"><stop stop-color="#fff2c7"/><stop offset="1" stop-color="#ffe1ed"/></linearGradient>
    <filter id="s" x="-20%" y="-20%" width="140%" height="140%"><feDropShadow dx="0" dy="18" stdDeviation="18" flood-opacity=".18"/></filter>
  </defs>
  <rect width="800" height="1000" fill="url(#g)"/>
  <circle cx="650" cy="150" r="180" fill="#fff" opacity=".18"/>
  <circle cx="105" cy="830" r="230" fill="#fff" opacity=".16"/>
  <g filter="url(#s)">
    <rect x="170" y="170" width="460" height="520" rx="60" fill="#fffaf4"/><path d="M250 250c50 145 250 145 300 0" stroke="#c28a1b" stroke-width="18" fill="none"/><path d="M230 315c72 180 268 180 340 0" stroke="#dfb13b" stroke-width="14" fill="none"/><path d="M285 402c70 116 160 116 230 0" stroke="#a96f0b" stroke-width="12" fill="none"/><circle cx="400" cy="475" r="28" fill="#dfb13b"/><circle cx="400" cy="562" r="20" fill="#c28a1b"/><circle cx="400" cy="633" r="16" fill="#a96f0b"/>
  </g>
  <rect x="60" y="760" width="680" height="150" rx="28" fill="#111" opacity=".64"/>
  <text x="90" y="820" font-family="Inter, Arial, sans-serif" font-size="42" font-weight="800" fill="#fff">叠戴金色项链</text>
  <text x="90" y="868" font-family="Inter, Arial, sans-serif" font-size="24" fill="#fff7f2">layered gold necklaces</text>
</svg>
