<svg xmlns="http://www.w3.org/2000/svg" viewBox="0 0 800 1000" role="img" aria-label="SheinLookbook">
  <defs>
    <linearGradient id="g" x1="0" y1="0" x2="1" y2="1"><stop stop-color="#ffd7e2"/><stop offset="1" stop-color="#ffe6cf"/></linearGradient>
    <filter id="s" x="-20%" y="-20%" width="140%" height="140%"><feDropShadow dx="0" dy="18" stdDeviation="18" flood-opacity=".18"/></filter>
  </defs>
  <rect width="800" height="1000" fill="url(#g)"/>
  <circle cx="650" cy="150" r="180" fill="#fff" opacity=".18"/>
  <circle cx="105" cy="830" r="230" fill="#fff" opacity=".16"/>
  <g filter="url(#s)">
    <path d="M390 150c70 0 126 58 126 130v380H264V280c0-72 56-130 126-130z" fill="#fff7f2"/><path d="M300 360h180l54 270H246z" fill="#ac2a5d"/><path d="M346 170c-30 20-44 54-42 92 35-14 72-14 112 0 20-36 8-78-70-92z" fill="#24181b"/><circle cx="390" cy="265" r="58" fill="#f6c7b7"/><path d="M330 250c30-55 98-65 132-22 4-75-110-94-132 22z" fill="#24181b"/>
  </g>
  <rect x="60" y="760" width="680" height="150" rx="28" fill="#111" opacity=".64"/>
  <text x="90" y="820" font-family="Inter, Arial, sans-serif" font-size="42" font-weight="800" fill="#fff">SheinLookbook</text>
  <text x="90" y="868" font-family="Inter, Arial, sans-serif" font-size="24" fill="#fff7f2">fast fashion shopping guide</text>
</svg>
