<svg xmlns="http://www.w3.org/2000/svg" viewBox="0 0 800 1000" role="img" aria-label="海岛度假亚麻套装">
  <defs>
    <linearGradient id="g" x1="0" y1="0" x2="1" y2="1"><stop stop-color="#dcf7ff"/><stop offset="1" stop-color="#fff4d8"/></linearGradient>
    <filter id="s" x="-20%" y="-20%" width="140%" height="140%"><feDropShadow dx="0" dy="18" stdDeviation="18" flood-opacity=".18"/></filter>
  </defs>
  <rect width="800" height="1000" fill="url(#g)"/>
  <circle cx="650" cy="150" r="180" fill="#fff" opacity=".18"/>
  <circle cx="105" cy="830" r="230" fill="#fff" opacity=".16"/>
  <g filter="url(#s)">
    <circle cx="405" cy="185" r="55" fill="#c98e76"/><path d="M342 165c36-50 118-42 132 12-36-16-78-16-132-12z" fill="#44291f"/><path d="M270 300h270v145H270z" fill="#fff7df"/><path d="M286 470h108v230H286zM416 470h108v230H416z" fill="#efe3c8"/><path d="M246 300h72l-44 230h-68zM492 300h72l68 230h-68z" fill="#fff7df"/><path d="M190 720c130-48 290-48 420 0" stroke="#6cc6d9" stroke-width="20" fill="none"/>
  </g>
  <rect x="60" y="760" width="680" height="150" rx="28" fill="#111" opacity=".64"/>
  <text x="90" y="820" font-family="Inter, Arial, sans-serif" font-size="42" font-weight="800" fill="#fff">海岛度假亚麻套装</text>
  <text x="90" y="868" font-family="Inter, Arial, sans-serif" font-size="24" fill="#fff7f2">linen resort co-ord</text>
</svg>
