<svg xmlns="http://www.w3.org/2000/svg" viewBox="0 0 800 1000" role="img" aria-label="亮片派对裙">
  <defs>
    <linearGradient id="g" x1="0" y1="0" x2="1" y2="1"><stop stop-color="#24181b"/><stop offset="1" stop-color="#7a2346"/></linearGradient>
    <filter id="s" x="-20%" y="-20%" width="140%" height="140%"><feDropShadow dx="0" dy="18" stdDeviation="18" flood-opacity=".18"/></filter>
  </defs>
  <rect width="800" height="1000" fill="url(#g)"/>
  <circle cx="650" cy="150" r="180" fill="#fff" opacity=".18"/>
  <circle cx="105" cy="830" r="230" fill="#fff" opacity=".16"/>
  <g filter="url(#s)">
    <circle cx="400" cy="175" r="54" fill="#d8a48f"/><path d="M342 158c32-58 116-52 138 4-42-14-84-12-138-4z" fill="#111"/><path d="M300 290h200l70 360H230z" fill="#ac2a5d"/><g fill="#ffd36e" opacity=".95"><circle cx="330" cy="350" r="8"/><circle cx="420" cy="390" r="7"/><circle cx="490" cy="480" r="8"/><circle cx="360" cy="550" r="7"/><circle cx="445" cy="610" r="8"/></g>
  </g>
  <rect x="60" y="760" width="680" height="150" rx="28" fill="#111" opacity=".64"/>
  <text x="90" y="820" font-family="Inter, Arial, sans-serif" font-size="42" font-weight="800" fill="#fff">亮片派对裙</text>
  <text x="90" y="868" font-family="Inter, Arial, sans-serif" font-size="24" fill="#fff7f2">sequin party mini</text>
</svg>
