<svg xmlns="http://www.w3.org/2000/svg" viewBox="0 0 800 1000" role="img" aria-label="衬衫牛仔日常">
  <defs>
    <linearGradient id="g" x1="0" y1="0" x2="1" y2="1"><stop stop-color="#f5f8ff"/><stop offset="1" stop-color="#e8fff0"/></linearGradient>
    <filter id="s" x="-20%" y="-20%" width="140%" height="140%"><feDropShadow dx="0" dy="18" stdDeviation="18" flood-opacity=".18"/></filter>
  </defs>
  <rect width="800" height="1000" fill="url(#g)"/>
  <circle cx="650" cy="150" r="180" fill="#fff" opacity=".18"/>
  <circle cx="105" cy="830" r="230" fill="#fff" opacity=".16"/>
  <g filter="url(#s)">
    <circle cx="395" cy="180" r="55" fill="#d6a08d"/><path d="M340 162c28-58 112-58 142 4-42-16-82-12-142-4z" fill="#24181b"/><path d="M270 295h250v220H270z" fill="#fff"/><path d="M315 520h76v230h-76zM412 520h76v230h-76z" fill="#4d79b8"/><path d="M270 300l-72 200M520 300l72 200" stroke="#fff" stroke-width="48" stroke-linecap="round"/><path d="M320 525h170" stroke="#ac2a5d" stroke-width="16"/>
  </g>
  <rect x="60" y="760" width="680" height="150" rx="28" fill="#111" opacity=".64"/>
  <text x="90" y="820" font-family="Inter, Arial, sans-serif" font-size="42" font-weight="800" fill="#fff">衬衫牛仔日常</text>
  <text x="90" y="868" font-family="Inter, Arial, sans-serif" font-size="24" fill="#fff7f2">cotton shirt and jeans</text>
</svg>
