<svg xmlns="http://www.w3.org/2000/svg" viewBox="0 0 800 1000" role="img" aria-label="都市街头穿搭">
  <defs>
    <linearGradient id="g" x1="0" y1="0" x2="1" y2="1"><stop stop-color="#d7e8ff"/><stop offset="1" stop-color="#ffd7e2"/></linearGradient>
    <filter id="s" x="-20%" y="-20%" width="140%" height="140%"><feDropShadow dx="0" dy="18" stdDeviation="18" flood-opacity=".18"/></filter>
  </defs>
  <rect width="800" height="1000" fill="url(#g)"/>
  <circle cx="650" cy="150" r="180" fill="#fff" opacity=".18"/>
  <circle cx="105" cy="830" r="230" fill="#fff" opacity=".16"/>
  <g filter="url(#s)">
    <circle cx="410" cy="188" r="54" fill="#d8a48f"/><path d="M350 180c18-60 116-64 136 5-40-18-86-12-136-5z" fill="#24181b"/><path d="M280 310h260l50 320H230z" fill="#fff"/><path d="M300 350h220v70H300z" fill="#111"/><path d="M250 620h300v90H250z" fill="#6e0035"/><path d="M180 710h440" stroke="#fff" stroke-width="26"/>
  </g>
  <rect x="60" y="760" width="680" height="150" rx="28" fill="#111" opacity=".64"/>
  <text x="90" y="820" font-family="Inter, Arial, sans-serif" font-size="42" font-weight="800" fill="#fff">都市街头穿搭</text>
  <text x="90" y="868" font-family="Inter, Arial, sans-serif" font-size="24" fill="#fff7f2">streetwear layers</text>
</svg>
