<svg xmlns="http://www.w3.org/2000/svg" viewBox="0 0 800 1000" role="img" aria-label="海边度假长裙">
  <defs>
    <linearGradient id="g" x1="0" y1="0" x2="1" y2="1"><stop stop-color="#ffd1dc"/><stop offset="1" stop-color="#ffefc7"/></linearGradient>
    <filter id="s" x="-20%" y="-20%" width="140%" height="140%"><feDropShadow dx="0" dy="18" stdDeviation="18" flood-opacity=".18"/></filter>
  </defs>
  <rect width="800" height="1000" fill="url(#g)"/>
  <circle cx="650" cy="150" r="180" fill="#fff" opacity=".18"/>
  <circle cx="105" cy="830" r="230" fill="#fff" opacity=".16"/>
  <g filter="url(#s)">
    <circle cx="402" cy="210" r="58" fill="#f1c2ae"/><path d="M342 188c26-56 112-54 132 10-38-12-72-8-132-10z" fill="#2e1f25"/><path d="M290 330c64-76 156-76 220 0l96 350H194z" fill="#fff7f2"/><path d="M338 340c48 36 86 36 132 0l44 300H294z" fill="#fe8d52"/><path d="M205 650c130 44 260 44 390 0" stroke="#ac2a5d" stroke-width="18" fill="none" opacity=".7"/>
  </g>
  <rect x="60" y="760" width="680" height="150" rx="28" fill="#111" opacity=".64"/>
  <text x="90" y="820" font-family="Inter, Arial, sans-serif" font-size="42" font-weight="800" fill="#fff">海边度假长裙</text>
  <text x="90" y="868" font-family="Inter, Arial, sans-serif" font-size="24" fill="#fff7f2">flowy vacation dress</text>
</svg>
