<svg xmlns="http://www.w3.org/2000/svg" viewBox="0 0 800 1000" role="img" aria-label="通勤轻熟风套装">
  <defs>
    <linearGradient id="g" x1="0" y1="0" x2="1" y2="1"><stop stop-color="#eef4ff"/><stop offset="1" stop-color="#ffe8ef"/></linearGradient>
    <filter id="s" x="-20%" y="-20%" width="140%" height="140%"><feDropShadow dx="0" dy="18" stdDeviation="18" flood-opacity=".18"/></filter>
  </defs>
  <rect width="800" height="1000" fill="url(#g)"/>
  <circle cx="650" cy="150" r="180" fill="#fff" opacity=".18"/>
  <circle cx="105" cy="830" r="230" fill="#fff" opacity=".16"/>
  <g filter="url(#s)">
    <rect x="245" y="265" width="310" height="430" rx="48" fill="#111"/><path d="M265 300l115 190 30-190zM535 300L420 490l-30-190z" fill="#fff7f2"/><path d="M310 700h90V470h-90zM420 700h90V470h-90z" fill="#283044"/><circle cx="400" cy="190" r="58" fill="#d6a08d"/><path d="M342 170c28-62 120-58 142 6-45-16-91-10-142-6z" fill="#24181b"/><rect x="230" y="690" width="340" height="48" rx="24" fill="#ac2a5d"/>
  </g>
  <rect x="60" y="760" width="680" height="150" rx="28" fill="#111" opacity=".64"/>
  <text x="90" y="820" font-family="Inter, Arial, sans-serif" font-size="42" font-weight="800" fill="#fff">通勤轻熟风套装</text>
  <text x="90" y="868" font-family="Inter, Arial, sans-serif" font-size="24" fill="#fff7f2">office blazer outfit</text>
</svg>
