<svg xmlns="http://www.w3.org/2000/svg" viewBox="0 0 800 1000" role="img" aria-label="无缝高弹瑜伽套装">
  <defs>
    <linearGradient id="g" x1="0" y1="0" x2="1" y2="1"><stop stop-color="#e9f8ec"/><stop offset="1" stop-color="#e8e9ff"/></linearGradient>
    <filter id="s" x="-20%" y="-20%" width="140%" height="140%"><feDropShadow dx="0" dy="18" stdDeviation="18" flood-opacity=".18"/></filter>
  </defs>
  <rect width="800" height="1000" fill="url(#g)"/>
  <circle cx="650" cy="150" r="180" fill="#fff" opacity=".18"/>
  <circle cx="105" cy="830" r="230" fill="#fff" opacity=".16"/>
  <g filter="url(#s)">
    <circle cx="398" cy="170" r="52" fill="#d8a48f"/><path d="M350 155c22-54 100-54 126 2-32-12-76-10-126-2z" fill="#24181b"/><path d="M310 265h180v150H310z" fill="#6e0035"/><path d="M310 430h78v250h-78zM412 430h78v250h-78z" fill="#111"/><path d="M230 710h340" stroke="#f06a8a" stroke-width="34" stroke-linecap="round"/><path d="M300 330c-86 36-112 94-82 150M500 330c86 36 112 94 82 150" stroke="#111" stroke-width="38" fill="none" stroke-linecap="round"/>
  </g>
  <rect x="60" y="760" width="680" height="150" rx="28" fill="#111" opacity=".64"/>
  <text x="90" y="820" font-family="Inter, Arial, sans-serif" font-size="42" font-weight="800" fill="#fff">无缝高弹瑜伽套装</text>
  <text x="90" y="868" font-family="Inter, Arial, sans-serif" font-size="24" fill="#fff7f2">matching yoga set</text>
</svg>
